<svg xmlns="http://www.w3.org/2000/svg" width="82" height="15" fill="none"><path fill="url(#a)" d="M.948 12V3.6h1.476l2.568 5.304c.408.9.636 1.752.636 1.752s.228-.852.636-1.752L8.832 3.6h1.476V12H9.096V7.14c0-.996.084-1.896.084-1.896s-.3.852-.696 1.764L6.12 12h-.996L2.772 7.008c-.396-.912-.684-1.764-.684-1.764s.072.9.072 1.896V12H.948Zm11.13 0V5.568h1.165V12h-1.164Zm-.06-7.668V3h1.285v1.332h-1.284Zm7.732 4.104c0-1.104-.72-1.896-1.764-1.896-1.104 0-1.824.756-1.872 2.28V12H14.95V5.568h1.044v1.164c.48-.792 1.284-1.296 2.244-1.296 1.584 0 2.664 1.224 2.664 2.928V12H19.75V8.436ZM22.508 12V5.568h1.164V12h-1.164Zm-.06-7.668V3h1.284v1.332h-1.284ZM29.483 12v-1.08c-.444.792-1.188 1.212-2.16 1.212-1.332 0-2.172-.756-2.172-1.86 0-1.596 1.428-1.908 3-2.184.396-.072.876-.18 1.188-.276-.06-.756-.696-1.344-1.56-1.344-.912 0-1.5.492-1.536 1.296l-1.188-.144c.144-1.332 1.188-2.184 2.724-2.184 1.632 0 2.844 1.08 2.844 2.616v2.208c0 .696.036 1.428.144 1.74h-1.284Zm-3.108-1.8c0 .552.408.912 1.104.912 1.116 0 1.872-.972 1.872-2.352v-.012c-.24.168-.72.264-1.212.348-1.032.192-1.764.396-1.764 1.104Zm5.909 1.8V3.6h1.476l2.568 5.304c.408.9.636 1.752.636 1.752s.228-.852.636-1.752L40.168 3.6h1.476V12h-1.212V7.14c0-.996.084-1.896.084-1.896s-.3.852-.696 1.764L37.456 12h-.996l-2.352-4.992c-.396-.912-.684-1.764-.684-1.764s.072.9.072 1.896V12h-1.212Zm15.188 0v-1.08c-.444.792-1.188 1.212-2.16 1.212-1.332 0-2.172-.756-2.172-1.86 0-1.596 1.428-1.908 3-2.184.396-.072.876-.18 1.188-.276-.06-.756-.696-1.344-1.56-1.344-.912 0-1.5.492-1.536 1.296l-1.188-.144c.144-1.332 1.188-2.184 2.724-2.184 1.632 0 2.844 1.08 2.844 2.616v2.208c0 .696.036 1.428.144 1.74h-1.284Zm-3.108-1.8c0 .552.408.912 1.104.912 1.116 0 1.872-.972 1.872-2.352v-.012c-.24.168-.72.264-1.212.348-1.032.192-1.764.396-1.764 1.104Zm5.87 1.8V3.096h1.153v5.46l3.216-2.988h1.56l-2.748 2.496L56.379 12h-1.404l-2.388-3.168-1.2 1.092V12h-1.152Zm9.433.132c-1.932 0-3.36-1.392-3.36-3.348 0-1.908 1.428-3.348 3.252-3.348 1.752 0 3.084 1.332 3.084 3.06 0 .144-.012.408-.036.528h-5.148c.12 1.248 1.008 2.028 2.172 2.028.984 0 1.68-.432 1.848-1.212l1.188.12c-.336 1.368-1.392 2.172-3 2.172Zm-2.136-4.104h3.864c-.036-.876-.78-1.548-1.848-1.548-1.032 0-1.776.612-2.016 1.548ZM63.934 12V5.568h1.056v1.176c.372-.828 1.044-1.308 1.872-1.308.96 0 1.56.624 1.704 1.752l-1.152.216c-.06-.564-.408-.852-.888-.852-.696 0-1.428.84-1.428 2.472V12h-1.164Zm4.32 0v-1.428h1.548V12h-1.548Zm7.19 0v-1.08c-.444.792-1.188 1.212-2.16 1.212-1.332 0-2.172-.756-2.172-1.86 0-1.596 1.428-1.908 3-2.184.396-.072.876-.18 1.188-.276-.06-.756-.696-1.344-1.56-1.344-.912 0-1.5.492-1.536 1.296l-1.188-.144c.144-1.332 1.188-2.184 2.724-2.184 1.632 0 2.844 1.08 2.844 2.616v2.208c0 .696.036 1.428.144 1.74h-1.284Zm-3.108-1.8c0 .552.408.912 1.104.912 1.116 0 1.872-.972 1.872-2.352v-.012c-.24.168-.72.264-1.212.348-1.032.192-1.764.396-1.764 1.104Zm5.871 1.8V5.568h1.165V12h-1.165Zm-.06-7.668V3h1.284v1.332h-1.284Z"/><path fill="#D9D9D9" d="M78.47.212a.307.307 0 0 1 .107-.154.286.286 0 0 1 .346 0c.05.039.087.092.107.154l.447 1.44c.02.061.057.115.107.154.05.038.111.059.173.059h1.448c.285 0 .404.381.173.557l-1.172.89a.309.309 0 0 0-.107.154.321.321 0 0 0 0 .19l.448 1.44c.02.062.02.129 0 .191a.308.308 0 0 1-.107.154.286.286 0 0 1-.347 0l-1.17-.89a.286.286 0 0 0-.347 0l-1.17.89a.286.286 0 0 1-.346 0 .308.308 0 0 1-.107-.155.322.322 0 0 1 0-.19l.447-1.44a.321.321 0 0 0 0-.19.309.309 0 0 0-.107-.155l-1.172-.888a.307.307 0 0 1-.107-.154.322.322 0 0 1 0-.19.308.308 0 0 1 .107-.155.286.286 0 0 1 .173-.059h1.448c.127 0 .24-.085.28-.213l.448-1.44Z"/><defs><linearGradient id="a" x1="0" x2="81" y1="8" y2="8" gradientUnits="userSpaceOnUse"><stop stop-color="#E36D00"/><stop offset=".625" stop-color="#FFB168"/></linearGradient></defs></svg>